<svg width="333" height="265" viewBox="0 0 333 265" fill="none" xmlns="http://www.w3.org/2000/svg">
<g clip-path="url(#clip0_19_216)">
<path d="M141.199 254.598C142.418 254.674 143.091 253.16 142.169 252.278L142.077 251.913C142.089 251.884 142.101 251.855 142.114 251.826C143.346 248.887 147.523 248.907 148.745 251.85C149.83 254.462 151.211 257.079 151.551 259.84C151.703 261.059 151.635 262.301 151.364 263.498C153.906 257.947 155.243 251.885 155.243 245.79C155.243 244.258 155.159 242.727 154.988 241.199C154.847 239.949 154.653 238.707 154.401 237.477C153.041 230.825 150.095 224.489 145.847 219.198C143.805 218.081 142.101 216.336 141.073 214.245C140.703 213.49 140.413 212.679 140.276 211.852C140.509 211.883 141.153 208.343 140.977 208.126C141.301 207.635 141.881 207.391 142.235 206.911C143.994 204.526 146.418 204.942 147.684 208.184C150.387 209.548 150.413 211.81 148.754 213.986C147.699 215.37 147.554 217.243 146.628 218.725C146.723 218.847 146.822 218.965 146.918 219.087C148.665 221.327 150.175 223.735 151.449 226.265C151.089 223.453 151.621 220.066 152.526 217.883C153.558 215.396 155.491 213.301 157.193 211.15C159.238 208.567 163.431 209.694 163.791 212.969C163.794 213 163.798 213.032 163.801 213.064C163.548 213.206 163.301 213.358 163.059 213.518C161.679 214.431 162.156 216.57 163.791 216.822L163.828 216.828C163.736 217.738 163.58 218.641 163.352 219.529C165.535 227.973 160.821 231.049 154.089 231.187C153.94 231.263 153.795 231.339 153.647 231.412C154.329 233.332 154.874 235.301 155.278 237.298C155.64 239.062 155.891 240.845 156.032 242.635C156.207 244.894 156.192 247.165 156.001 249.42L156.013 249.34C156.497 246.857 157.846 244.536 159.804 242.929C162.722 240.532 166.844 239.65 169.991 237.724C171.507 236.796 173.448 237.995 173.184 239.751L173.171 239.835C172.702 240.026 172.245 240.247 171.803 240.494C171.55 240.637 171.302 240.788 171.06 240.948C169.68 241.861 170.157 244 171.793 244.253L171.83 244.258C171.856 244.262 171.879 244.266 171.906 244.27C171.102 246.178 169.982 247.95 168.579 249.478C167.214 256.849 161.349 257.548 155.076 255.402H155.072C154.386 258.389 153.384 261.307 152.096 264.088H141.465C141.427 263.97 141.393 263.848 141.358 263.73C142.341 263.791 143.332 263.734 144.3 263.555C143.511 262.587 142.723 261.612 141.934 260.644C141.915 260.625 141.899 260.606 141.884 260.587C141.484 260.092 141.08 259.6 140.68 259.105L140.68 259.104C140.655 257.584 140.837 256.069 141.198 254.598L141.199 254.598Z" fill="#F2F2F2"/>
<path d="M0 264.298C0 264.687 0.312684 265 0.70206 265H238.617C239.007 265 239.32 264.687 239.32 264.298C239.32 263.909 239.007 263.596 238.617 263.596H0.70206C0.312684 263.596 0 263.909 0 264.298Z" fill="#CCCCCC"/>
<path d="M321.364 264.844H199.512C193.095 264.844 187.876 259.624 187.876 253.209V11.6346C187.876 5.21938 193.095 0 199.512 0H321.364C327.78 0 333 5.21938 333 11.6346V253.209C333 259.624 327.78 264.844 321.364 264.844ZM199.512 1.1797C193.737 1.1797 189.055 5.86039 189.055 11.6343V253.209C189.055 258.983 193.737 263.664 199.512 263.664H321.364C327.139 263.664 331.82 258.983 331.82 253.209V88.8935C331.82 40.4505 292.544 1.1797 244.094 1.1797H199.512Z" fill="#3F3D56"/>
<path d="M222.485 119.22C230.305 119.22 236.644 112.882 236.644 105.063C236.644 97.2449 230.305 90.9069 222.485 90.9069C214.666 90.9069 208.327 97.2449 208.327 105.063C208.327 112.882 214.666 119.22 222.485 119.22Z" fill="#E6E6E6"/>
<path d="M298.39 119.22C306.21 119.22 312.549 112.882 312.549 105.063C312.549 97.2449 306.21 90.9069 298.39 90.9069C290.571 90.9069 284.232 97.2449 284.232 105.063C284.232 112.882 290.571 119.22 298.39 119.22Z" fill="#E6E6E6"/>
<path d="M260.438 119.22C268.257 119.22 274.596 112.882 274.596 105.063C274.596 97.2449 268.257 90.9069 260.438 90.9069C252.618 90.9069 246.279 97.2449 246.279 105.063C246.279 112.882 252.618 119.22 260.438 119.22Z" fill="#E6E6E6"/>
<path d="M222.485 159.92C230.305 159.92 236.644 153.581 236.644 145.763C236.644 137.945 230.305 131.607 222.485 131.607C214.666 131.607 208.327 137.945 208.327 145.763C208.327 153.581 214.666 159.92 222.485 159.92Z" fill="#E6E6E6"/>
<path d="M298.39 159.92C306.21 159.92 312.549 153.581 312.549 145.763C312.549 137.945 306.21 131.607 298.39 131.607C290.571 131.607 284.232 137.945 284.232 145.763C284.232 153.581 290.571 159.92 298.39 159.92Z" fill="#E6E6E6"/>
<path d="M260.438 159.92C268.257 159.92 274.596 153.581 274.596 145.763C274.596 137.945 268.257 131.607 260.438 131.607C252.618 131.607 246.279 137.945 246.279 145.763C246.279 153.581 252.618 159.92 260.438 159.92Z" fill="#E6E6E6"/>
<path d="M222.485 200.619C230.305 200.619 236.644 194.281 236.644 186.463C236.644 178.644 230.305 172.306 222.485 172.306C214.666 172.306 208.327 178.644 208.327 186.463C208.327 194.281 214.666 200.619 222.485 200.619Z" fill="#E6E6E6"/>
<path d="M298.101 241.249C305.92 241.249 312.259 234.911 312.259 227.093C312.259 219.275 305.92 212.937 298.101 212.937C290.281 212.937 283.942 219.275 283.942 227.093C283.942 234.911 290.281 241.249 298.101 241.249Z" fill="#E6E6E6"/>
<path d="M241.762 241.249C260.17 241.249 275.093 234.911 275.093 227.093C275.093 219.275 260.17 212.937 241.762 212.937C223.353 212.937 208.43 219.275 208.43 227.093C208.43 234.911 223.353 241.249 241.762 241.249Z" fill="#E6E6E6"/>
<path d="M298.39 200.619C306.21 200.619 312.549 194.281 312.549 186.463C312.549 178.644 306.21 172.306 298.39 172.306C290.571 172.306 284.232 178.644 284.232 186.463C284.232 194.281 290.571 200.619 298.39 200.619Z" fill="#E6E6E6"/>
<path d="M260.438 200.619C268.257 200.619 274.596 194.281 274.596 186.463C274.596 178.644 268.257 172.306 260.438 172.306C252.618 172.306 246.279 178.644 246.279 186.463C246.279 194.281 252.618 200.619 260.438 200.619Z" fill="#FF7B00"/>
<path d="M263.22 16.5159H127.81C123.795 16.5159 120.53 19.7803 120.53 23.7948V73.5307C120.53 77.5453 123.795 80.8097 127.81 80.8097H263.22C267.235 80.8097 270.5 77.5453 270.5 73.5307V23.7948C270.5 19.7803 267.235 16.5159 263.22 16.5159Z" fill="white"/>
<path d="M263.22 16.5159H127.81C123.795 16.5159 120.53 19.7803 120.53 23.7948V73.5307C120.53 77.5453 123.795 80.8097 127.81 80.8097H263.22C267.235 80.8097 270.5 77.5453 270.5 73.5307V23.7948C270.5 19.7803 267.235 16.5159 263.22 16.5159ZM269.735 73.5307C269.735 77.1243 266.814 80.0443 263.22 80.0443H127.81C124.216 80.0443 121.295 77.1243 121.295 73.5307V23.7948C121.295 20.2013 124.216 17.2813 127.81 17.2813H263.22C266.814 17.2813 269.735 20.2013 269.735 23.7948V73.5307Z" fill="#3F3D56"/>
<path d="M255.689 46.5983H135.342C134.201 46.5983 133.277 47.5226 133.277 48.6628C133.277 49.803 134.201 50.7273 135.342 50.7273H255.689C256.829 50.7273 257.753 49.803 257.753 48.6628C257.753 47.5226 256.829 46.5983 255.689 46.5983Z" fill="#FF7B00"/>
<path d="M40.0874 106.422L38.8813 113.603L49.5772 139.618L55.3159 136.668L49.7304 112.324L48.9276 103.033L40.0874 106.422Z" fill="#A0616A"/>
<path d="M51.8944 66.0213C51.8944 66.0213 46.2943 63.3089 41.9489 72.4736C37.6034 81.6383 38.1415 101.739 38.1415 101.739C38.1415 101.739 36.5593 103.245 37.5637 104.3C38.5681 105.355 39.5046 107.028 38.4799 108.958C37.9399 109.975 36.6901 111.964 38.7368 112.529C40.7834 113.094 50.3573 110.425 50.3573 110.425C50.3573 110.425 53.9372 108.821 51.9031 107.741C49.869 106.661 52.7338 100.129 52.7338 100.129L55.1009 81.2587L51.8944 66.0213Z" fill="#FF7B00"/>
<path d="M56.2915 149.557C58.5392 148.867 59.419 145.239 58.2565 141.454C57.094 137.669 54.3294 135.16 52.0817 135.85C49.8339 136.54 48.9541 140.168 50.1166 143.953C51.2791 147.738 54.0437 150.247 56.2915 149.557Z" fill="#A0616A"/>
<path d="M109.302 261.051L114.662 259.612L111.664 238.255L103.753 240.378L109.302 261.051Z" fill="#A0616A"/>
<path d="M127.635 256.002C127.877 256.238 128.209 257.122 128.297 257.448C128.566 258.453 127.97 259.486 126.965 259.756L110.365 264.209C109.679 264.393 108.974 263.987 108.791 263.301L108.605 262.61C108.605 262.61 107.226 260.754 108.23 257.74C108.23 257.74 110.87 259.181 113.167 255.199L113.643 253.273L121.661 256.376L125.499 255.837C126.338 255.719 127.028 255.41 127.635 256.002H127.635Z" fill="#2F2E41"/>
<path d="M56.7585 260.928L62.3086 260.927L64.9488 239.522L56.7574 239.523L56.7585 260.928Z" fill="#A0616A"/>
<path d="M75.7738 260.802C75.9466 261.093 76.0378 262.032 76.0378 262.37C76.0378 263.41 75.1944 264.254 74.1541 264.254H56.9661C56.2564 264.254 55.6811 263.678 55.6811 262.969V262.253C55.6811 262.253 54.8308 260.103 56.5814 257.452C56.5814 257.452 58.7571 259.528 62.0081 256.277L62.9669 254.541L69.9066 259.615L73.7532 260.089C74.5948 260.192 75.3409 260.073 75.7738 260.802Z" fill="#2F2E41"/>
<path d="M93.6953 133.427L108.29 196.325L115.335 247.146L104.264 248.655L73.5653 162.109L66.5198 248.655L53.9386 249.662C53.9386 249.662 43.8736 147.013 48.4028 134.434L93.6953 133.427Z" fill="#2F2E41"/>
<path d="M111.067 59.0528L116.102 53.792L121.885 26.2655L115.48 25.4791L106.411 48.7515L101.85 56.8861L111.067 59.0528Z" fill="#A0616A"/>
<path d="M78.5855 85.8265C78.5855 85.8265 83.2981 94.5147 92.045 89.3784C100.792 84.242 110.043 64.0196 110.043 64.0196C110.043 64.0196 111.89 58.8789 113.822 57.8593C114.841 57.3219 117.461 56.7423 116.086 55.1244C114.711 53.5065 104.825 49.9695 104.825 49.9695C104.825 49.9695 100.962 49.2832 102.037 51.3197C103.112 53.3562 99.5818 52.0946 99.9382 54.2499C100.295 56.4052 97.0699 57.148 97.0699 57.148L78.5854 85.8265H78.5855Z" fill="#FF7B00"/>
<path d="M123.877 22.3772C125.044 18.5934 124.168 14.9644 121.921 14.2716C119.674 13.5787 116.907 16.0845 115.74 19.8683C114.573 23.652 115.448 27.281 117.695 27.9739C119.942 28.6667 122.71 26.1609 123.877 22.3772Z" fill="#A0616A"/>
<path d="M79.2111 55.7254H65.4323L64.8747 60.0691C64.8747 60.0691 47.4973 64.8472 47.9318 67.4534C48.3662 70.0597 50.9728 113.497 50.9728 113.497L48.8006 135.216C48.8006 135.216 87.8998 151.722 93.9818 132.175L90.9408 109.588C90.9408 109.588 98.3262 70.9284 96.5885 69.1909C94.8507 67.4534 80.5144 60.5035 80.5144 60.5035L79.2111 55.7254L79.2111 55.7254Z" fill="#FF7B00"/>
<path d="M71.2075 55.7795C78.0378 55.7795 83.5749 50.2432 83.5749 43.4138C83.5749 36.5845 78.0378 31.0482 71.2075 31.0482C64.3771 31.0482 58.84 36.5845 58.84 43.4138C58.84 50.2432 64.3771 55.7795 71.2075 55.7795Z" fill="#A0616A"/>
<path d="M80.3667 38.3273C81.9469 38.1937 83.527 38.0601 85.1071 37.9266C84.564 37.6775 83.9983 37.4109 83.6364 36.9354C83.2745 36.46 83.1997 35.7087 83.6368 35.3013C84.1477 34.8253 84.9937 35.0775 85.552 35.4968C85.2446 33.8919 84.2866 32.4214 82.9425 31.4917C81.3006 30.3561 77.2389 31.7102 75.2596 31.4495C72.9758 31.1487 72.6907 29.2019 70.4069 28.901C69.5462 28.7877 68.5774 28.7022 67.9005 29.2459C67.1497 29.8489 67.0655 30.989 66.4032 31.6879C65.4574 32.6858 63.8365 32.3914 62.4906 32.6721C60.5844 33.0699 59.1474 34.7411 58.4837 36.5716C57.82 38.4021 57.7956 40.393 57.7786 42.3401C57.7597 44.5221 57.7529 47.0482 59.3313 48.5552C60.2929 49.4734 62.9123 52.6235 63.1954 53.9225C63.3965 54.8451 71.5924 55.9687 73.3688 55.9176L79.4233 53.9225C80.0183 51.3028 79.034 46.1203 77.6193 43.8364C78.0852 44.4517 80.2396 46.3039 80.569 45.606C80.8983 44.9081 80.749 42.7206 81.1589 42.0669C81.6765 41.2417 79.3961 38.4093 80.3667 38.3273V38.3273Z" fill="#2F2E41"/>
</g>
<defs>
<clipPath id="clip0_19_216">
<rect width="333" height="265" fill="white"/>
</clipPath>
</defs>
</svg>
