<svg width="310" height="271" viewBox="0 0 310 271" fill="none" xmlns="http://www.w3.org/2000/svg">
<g clip-path="url(#clip0_16_7)">
<path d="M58.2501 190.843L55.0533 216.014L50.3489 187.42C27.7402 178.749 1.30543 177.065 1.30543 177.065C1.30543 177.065 -4.52813 231.676 14.7323 254.512C33.9927 277.347 54.2994 273.875 71.0534 259.758C87.8073 245.641 94.664 226.223 75.4036 203.388C71.1166 198.305 65.0651 194.183 58.2501 190.843Z" fill="#F2F2F2"/>
<path d="M51.9811 219.82L52.9304 220.945C63.8988 234.085 70.3014 246.154 72.0325 256.992C72.0604 257.149 72.0781 257.306 72.1061 257.463L71.372 257.577L70.6649 257.677C68.9235 245.866 61.3698 233.461 51.8058 221.998C51.5012 221.625 51.1919 221.247 50.8714 220.879C46.7799 216.062 42.3627 211.424 37.8845 207.076C37.5409 206.736 37.187 206.396 36.8331 206.055C30.8926 200.346 24.8972 195.16 19.5422 190.779C19.1651 190.468 18.7824 190.161 18.4044 189.86C9.31 182.481 2.22655 177.554 0.647226 176.473C0.456958 176.338 0.349172 176.267 0.324799 176.249L0.72752 175.652L0.728394 175.642L1.13669 175.041C1.16109 175.058 1.52374 175.296 2.17801 175.755C4.63566 177.459 11.2379 182.143 19.4242 188.762C19.7919 189.062 20.1746 189.369 20.5517 189.681C24.9011 193.232 29.6521 197.293 34.4388 201.724C35.643 202.835 36.8163 203.944 37.9589 205.049C38.3183 205.385 38.6722 205.726 39.0159 206.065C43.8574 210.765 48.1791 215.35 51.9811 219.82Z" fill="white"/>
<path d="M19.4242 188.762C19.093 189.127 18.7562 189.497 18.4044 189.86C17.4504 190.847 16.4465 191.786 15.3965 192.671C10.926 196.448 5.66463 199.174 0 200.649C0.0149399 201.142 0.0299099 201.635 0.0439767 202.137C6.04053 200.63 11.6132 197.774 16.3365 193.785C17.4573 192.84 18.5273 191.837 19.5422 190.779C19.8883 190.421 20.2251 190.051 20.5516 189.68C23.262 186.64 25.4948 183.207 27.1735 179.497C26.6753 179.392 26.1874 179.288 25.7097 179.186C24.0978 182.67 21.9797 185.897 19.4242 188.762Z" fill="white"/>
<path d="M37.9589 205.049C37.593 205.396 37.2177 205.731 36.833 206.055C36.7207 206.159 36.598 206.263 36.4809 206.361C31.6316 210.448 25.8655 213.301 19.6743 214.679C13.483 216.057 7.05032 215.918 0.9245 214.274C0.9788 214.79 1.0331 215.307 1.09768 215.825C7.38037 217.417 13.9522 217.49 20.2689 216.038C26.5856 214.587 32.4652 211.651 37.4209 207.476C37.577 207.344 37.7331 207.213 37.8845 207.076C38.27 206.741 38.6453 206.406 39.0159 206.065C44.7112 200.745 48.7528 193.897 50.6576 186.342C50.2019 186.163 49.7462 185.985 49.2849 185.811C47.4629 193.189 43.5267 199.875 37.9589 205.049Z" fill="white"/>
<path d="M51.9811 219.82C51.619 220.182 51.2476 220.533 50.8714 220.879C50.4674 221.248 50.0587 221.611 49.6406 221.963C43.1179 227.447 34.9937 230.671 26.4843 231.153C17.9749 231.635 9.53821 229.35 2.43729 224.638C2.56713 225.301 2.69223 225.958 2.83319 226.611C10.1535 231.113 18.707 233.195 27.2784 232.56C35.8499 231.926 44.0034 228.608 50.5806 223.078C50.9987 222.726 51.4121 222.368 51.8058 221.998C52.1922 221.653 52.5637 221.302 52.9304 220.945C60.2929 213.687 64.6207 203.903 65.0373 193.576C64.5724 193.262 64.0956 192.968 63.614 192.668C63.4162 202.886 59.2435 212.626 51.9811 219.82Z" fill="white"/>
<path d="M177.921 64.0595V23.484C177.921 17.2557 175.446 11.2825 171.039 6.87836C166.633 2.47426 160.657 4.20528e-05 154.426 -9.53209e-07H68.4188C65.3333 -2.03689e-05 62.278 0.607394 59.4274 1.78756C56.5768 2.96773 53.9866 4.69754 51.8049 6.87822C49.6231 9.0589 47.8924 11.6478 46.7116 14.497C45.5308 17.3462 44.9231 20.4 44.9231 23.4839V50.4313H43.4119V59.9263H44.9231V70.0542H43.4119V84.6131H44.9231V90.9431H43.4119V105.502H44.9231V246.084C44.9231 249.168 45.5308 252.222 46.7115 255.071C47.8923 257.921 49.6229 260.51 51.8047 262.69C53.9864 264.871 56.5765 266.601 59.4271 267.781C62.2778 268.961 65.333 269.569 68.4185 269.569H154.425C157.511 269.569 160.566 268.961 163.417 267.781C166.267 266.601 168.857 264.871 171.039 262.69C173.221 260.51 174.952 257.921 176.132 255.072C177.313 252.222 177.921 249.169 177.921 246.085V92.9419H179.403V64.0595H177.921Z" fill="#3F3D56"/>
<path d="M155.373 6.10973H144.147C144.663 7.37488 144.86 8.74752 144.721 10.1067C144.581 11.4659 144.109 12.77 143.347 13.9041C142.584 15.0381 141.554 15.9673 140.348 16.6098C139.142 17.2524 137.796 17.5885 136.429 17.5886H87.1564C85.7893 17.5885 84.4433 17.2524 83.2369 16.6098C82.0305 15.9673 81.0006 15.0381 80.2381 13.9041C79.4756 12.77 79.0038 11.4659 78.8643 10.1067C78.7248 8.74751 78.9219 7.37486 79.4382 6.10971H68.9524C64.2989 6.10971 59.8359 7.95741 56.5454 11.2463C53.2548 14.5353 51.4062 18.996 51.4062 23.6473V245.921C51.4062 248.224 51.8601 250.505 52.7418 252.633C53.6236 254.76 54.9161 256.694 56.5454 258.322C58.1747 259.951 60.109 261.242 62.2378 262.124C64.3666 263.005 66.6482 263.459 68.9524 263.459H155.374C160.027 263.459 164.49 261.611 167.781 258.322C171.071 255.033 172.92 250.572 172.92 245.921V23.6473C172.92 21.3442 172.466 19.0637 171.584 16.9359C170.702 14.8082 169.41 12.8749 167.781 11.2463C166.151 9.61783 164.217 8.32602 162.088 7.44468C159.959 6.56334 157.678 6.10972 155.373 6.10973Z" fill="white"/>
<path d="M157.547 83.4632H66.7786C66.1461 83.4625 65.5397 83.211 65.0924 82.764C64.6451 82.3169 64.3935 81.7108 64.3928 81.0786V44.2667C64.3935 43.6344 64.6451 43.0283 65.0924 42.5813C65.5397 42.1342 66.1461 41.8828 66.7786 41.882H157.547C158.18 41.8827 158.786 42.1342 159.233 42.5813C159.681 43.0283 159.932 43.6344 159.933 44.2667V81.0786C159.932 81.7108 159.681 82.3169 159.233 82.764C158.786 83.211 158.18 83.4625 157.547 83.4632Z" fill="#FF7B00"/>
<path d="M148.904 100.884H75.4215C74.7255 100.884 74.0579 100.607 73.5658 100.115C73.0736 99.6235 72.7971 98.9563 72.7971 98.2606C72.7971 97.5649 73.0736 96.8977 73.5658 96.4058C74.0579 95.9138 74.7255 95.6375 75.4215 95.6375H148.904C149.6 95.6375 150.268 95.9138 150.76 96.4058C151.252 96.8977 151.529 97.5649 151.529 98.2606C151.529 98.9563 151.252 99.6235 150.76 100.115C150.268 100.607 149.6 100.884 148.904 100.884Z" fill="#FF7B00"/>
<path d="M148.904 114.238H75.4215C74.6622 114.238 73.934 113.936 73.3971 113.4C72.8602 112.863 72.5585 112.135 72.5585 111.376C72.5585 110.617 72.8602 109.889 73.3971 109.353C73.934 108.816 74.6622 108.515 75.4215 108.515H148.904C149.664 108.515 150.392 108.816 150.929 109.353C151.466 109.889 151.767 110.617 151.767 111.376C151.767 112.135 151.466 112.863 150.929 113.4C150.392 113.936 149.664 114.238 148.904 114.238Z" fill="#E4E4E4"/>
<path d="M148.904 127.353H75.4215C74.6622 127.353 73.934 127.052 73.3971 126.515C72.8602 125.978 72.5585 125.251 72.5585 124.492C72.5585 123.733 72.8602 123.005 73.3971 122.468C73.934 121.932 74.6622 121.63 75.4215 121.63H148.904C149.664 121.63 150.392 121.932 150.929 122.468C151.466 123.005 151.767 123.733 151.767 124.492C151.767 125.251 151.466 125.978 150.929 126.515C150.392 127.052 149.664 127.353 148.904 127.353Z" fill="#E4E4E4"/>
<path d="M157.547 193.634H66.7786C66.1461 193.633 65.5397 193.381 65.0924 192.934C64.6451 192.487 64.3935 191.881 64.3928 191.249V154.437C64.3935 153.805 64.6451 153.199 65.0924 152.752C65.5397 152.305 66.1461 152.053 66.7786 152.052H157.547C158.18 152.053 158.786 152.305 159.233 152.752C159.681 153.199 159.932 153.805 159.933 154.437V191.249C159.932 191.881 159.681 192.487 159.233 192.934C158.786 193.381 158.18 193.633 157.547 193.634Z" fill="#E4E4E4"/>
<path d="M148.904 211.292H75.4215C74.6622 211.292 73.934 210.991 73.3971 210.454C72.8602 209.918 72.5585 209.19 72.5585 208.431C72.5585 207.672 72.8602 206.944 73.3971 206.407C73.934 205.871 74.6622 205.569 75.4215 205.569H148.904C149.664 205.569 150.392 205.871 150.929 206.407C151.466 206.944 151.767 207.672 151.767 208.431C151.767 209.19 151.466 209.918 150.929 210.454C150.392 210.991 149.664 211.292 148.904 211.292Z" fill="#E4E4E4"/>
<path d="M148.904 224.408H75.4215C74.6622 224.408 73.934 224.106 73.3971 223.57C72.8602 223.033 72.5585 222.305 72.5585 221.546C72.5585 220.787 72.8602 220.06 73.3971 219.523C73.934 218.986 74.6622 218.685 75.4215 218.685H148.904C149.664 218.685 150.392 218.986 150.929 219.523C151.466 220.06 151.767 220.787 151.767 221.546C151.767 222.305 151.466 223.033 150.929 223.57C150.392 224.106 149.664 224.408 148.904 224.408Z" fill="#E4E4E4"/>
<path d="M148.904 237.523H75.4215C74.6622 237.523 73.934 237.222 73.3971 236.685C72.8602 236.149 72.5585 235.421 72.5585 234.662C72.5585 233.903 72.8602 233.175 73.3971 232.638C73.934 232.102 74.6622 231.8 75.4215 231.8H148.904C149.664 231.8 150.392 232.102 150.929 232.638C151.466 233.175 151.767 233.903 151.767 234.662C151.767 235.421 151.466 236.149 150.929 236.685C150.392 237.222 149.664 237.523 148.904 237.523Z" fill="#E4E4E4"/>
<path d="M231.377 69.7923C230.454 63.0249 229.297 55.7591 224.521 50.8738C223.006 49.3237 221.192 48.0964 219.189 47.2658C217.187 46.4352 215.037 46.0185 212.868 46.041C210.7 46.0634 208.559 46.5244 206.574 47.3963C204.589 48.2681 202.801 49.5327 201.319 51.1138C197.842 54.8204 196.307 60.0251 196.167 65.1037C196.026 70.1822 197.158 75.2043 198.413 80.1275C205.057 80.2601 211.651 78.9628 217.748 76.3236C219.243 75.5945 220.793 74.9862 222.384 74.5044C223.995 74.0946 225.143 75.1259 226.642 75.845L227.464 74.2707C228.138 75.5232 230.223 75.1519 230.979 73.9477C231.735 72.7434 231.57 71.2011 231.377 69.7923Z" fill="#2F2E41"/>
<path d="M292.23 255.16L287.35 258.385L272.582 241.108L279.783 236.348L292.23 255.16Z" fill="#9E616A"/>
<path d="M296.602 259.065L280.869 269.464L280.737 269.265C279.663 267.642 279.278 265.659 279.667 263.752C280.056 261.845 281.187 260.17 282.811 259.097L282.811 259.097L292.421 252.745L296.602 259.065Z" fill="#2F2E41"/>
<path d="M229.242 263.796H223.392L220.609 241.243L229.243 241.244L229.242 263.796Z" fill="#9E616A"/>
<path d="M230.734 269.464L211.871 269.464V269.225C211.872 267.279 212.645 265.413 214.022 264.036C215.399 262.66 217.266 261.887 219.213 261.887H219.214L230.734 261.888L230.734 269.464Z" fill="#2F2E41"/>
<path d="M187.621 108.81L165.533 93.0398C165.631 92.2137 165.486 91.3771 165.116 90.6318C164.746 89.8866 164.168 89.2648 163.451 88.8421C162.734 88.4194 161.91 88.2141 161.079 88.251C160.247 88.288 159.444 88.5658 158.768 89.0504C158.092 89.5351 157.571 90.2058 157.269 90.981C156.967 91.7561 156.897 92.6023 157.067 93.4165C157.238 94.2307 157.641 94.9779 158.229 95.5671C158.816 96.1563 159.562 96.5621 160.376 96.7351C163.137 99.0521 183.303 119.097 186.19 118.04C189.121 116.967 201.933 115.024 201.933 115.024L202.29 102.865L187.621 108.81Z" fill="#9E616A"/>
<path d="M204.974 137.502L205.183 165.249C205.183 165.249 209.963 206.36 211.726 213.306C213.489 220.251 220.645 252.388 220.645 252.388L232.277 250.512L224.786 208.496L227.05 173.672L240.107 208.572L273.263 243.213L281.666 236.436L252.807 194.046L243.992 159.321C243.992 159.321 245.089 141.36 235.212 134.443L204.974 137.502Z" fill="#2F2E41"/>
<path d="M211.656 76.4879C218.698 76.4879 224.406 70.7822 224.406 63.744C224.406 56.7057 218.698 51.0001 211.656 51.0001C204.615 51.0001 198.906 56.7057 198.906 63.744C198.906 70.7822 204.615 76.4879 211.656 76.4879Z" fill="#9E616A"/>
<path d="M214.974 141.979L210.235 152.552L223.987 158.71L228.726 148.137L214.974 141.979Z" fill="#2F2E41"/>
<path d="M232.078 88.2645C230.575 85.2756 229.845 81.5832 226.642 80.6142C224.479 79.9599 215.73 80.9405 213.758 82.045C210.479 83.8823 213.451 87.3251 211.516 90.5469C209.413 94.0493 207.31 97.5517 205.207 101.054C203.761 103.462 202.3 105.904 201.519 108.601C200.737 111.298 200.699 114.326 202.031 116.798C203.223 119.012 205.382 120.581 206.581 122.791C207.827 125.089 205.59 135.349 204.429 137.692L204.986 137.949C212.7 138.401 220.438 138.141 228.104 137.171C230.006 136.93 231.982 136.616 233.55 135.512C235.859 133.886 236.772 130.936 237.343 128.17C240.089 114.654 238.236 100.608 232.078 88.2645Z" fill="#E4E4E4"/>
<path d="M205.984 117.21C209.438 113.817 212.91 110.404 215.754 106.485C218.597 102.567 220.809 98.0812 221.426 93.2798C221.69 91.7479 221.585 90.1751 221.12 88.6918C220.59 87.2376 219.417 85.947 217.905 85.6152C215.484 85.0842 213.284 87.0147 211.557 88.7905C206.465 94.0265 201.373 99.2626 196.281 104.499C199.525 108.766 202.768 113.034 206.012 117.301L205.984 117.21Z" fill="#E4E4E4"/>
<path d="M243.634 119.824C242.56 116.895 240.617 104.089 240.617 104.089L228.451 103.732L234.399 118.394L218.169 141.104C218.169 141.104 218.199 141.154 218.254 141.243C217.4 141.106 216.526 141.23 215.744 141.598C214.962 141.966 214.31 142.562 213.872 143.307C213.435 144.052 213.232 144.911 213.292 145.773C213.351 146.635 213.669 147.458 214.204 148.137C214.74 148.815 215.468 149.315 216.292 149.573C217.117 149.831 218.001 149.834 218.827 149.582C219.654 149.329 220.385 148.834 220.925 148.159C221.465 147.485 221.789 146.663 221.854 145.802C221.914 145.836 221.983 145.848 222.051 145.837C222.119 145.825 222.181 145.79 222.226 145.738C224.032 143.473 244.708 122.753 243.634 119.824Z" fill="#9E616A"/>
<path d="M244.871 111.736C243.754 107.026 242.629 102.29 240.747 97.8296C238.864 93.3694 236.169 89.1566 232.379 86.1434C231.204 85.1244 229.803 84.4 228.293 84.0302C226.774 83.7306 225.062 84.0659 223.995 85.1875C222.287 86.9822 222.801 89.8631 223.427 92.2592C225.274 99.3242 227.12 106.389 228.967 113.454C234.299 112.889 239.631 112.324 244.963 111.759L244.871 111.736Z" fill="#E4E4E4"/>
<path d="M227.596 64.7352C227.197 61.6524 226.781 58.5436 225.844 55.6408C224.908 52.7379 223.398 50.019 221.233 48.3746C217.804 45.771 213.366 46.2732 209.522 47.7708C206.549 48.929 203.647 50.6894 201.551 53.5194C199.454 56.3495 198.277 60.3877 199.057 64.0882C203.157 62.9476 207.257 61.807 211.358 60.6665L210.909 61.0399C213.57 62.5385 215.59 65.6392 216.194 69.15C216.801 72.6485 216.025 76.2459 214.03 79.1835C216.826 78.0155 219.622 76.8476 222.419 75.6797C224.145 74.9588 225.992 74.1281 227.016 72.279C228.203 70.1352 227.927 67.2937 227.596 64.7352Z" fill="#2F2E41"/>
<path d="M167.397 84.714L159.195 97.0178C158.999 97.3132 158.733 97.5552 158.42 97.7219C158.107 97.8885 157.758 97.9746 157.403 97.9722C156.981 97.9723 156.569 97.8476 156.218 97.6138C155.867 97.38 155.593 97.0475 155.43 96.6583C155.373 96.5271 155.33 96.39 155.302 96.2494C155.191 95.6911 155.306 95.1116 155.621 94.6377L163.823 82.334C163.98 82.0994 164.181 81.898 164.415 81.7411C164.649 81.5842 164.912 81.4749 165.189 81.4196C165.465 81.3643 165.75 81.3639 166.026 81.4185C166.303 81.4731 166.566 81.5817 166.801 81.738C167.036 81.8942 167.237 82.0952 167.394 82.3293C167.551 82.5635 167.66 82.8262 167.716 83.1026C167.771 83.3789 167.771 83.6635 167.717 83.9399C167.662 84.2164 167.554 84.4795 167.397 84.714Z" fill="#FF7B00"/>
<path d="M159.857 96.0255L158.196 98.5012L155.259 101.089C155.066 101.26 154.821 101.362 154.564 101.379C154.307 101.397 154.051 101.329 153.836 101.186C153.622 101.043 153.461 100.833 153.378 100.589C153.295 100.345 153.295 100.081 153.378 99.8366L154.664 96.0745L156.283 93.6455L159.857 96.0255Z" fill="#3F3D56"/>
<path d="M167.76 78.2617L163.649 81.883C163.515 82.0015 163.409 82.1494 163.341 82.3152C163.272 82.481 163.243 82.6603 163.255 82.8392C163.267 83.0181 163.32 83.1918 163.41 83.3469C163.5 83.5021 163.625 83.6344 163.774 83.7339L164.552 84.2518L162.303 87.6254C162.268 87.6775 162.244 87.736 162.232 87.7974C162.22 87.8589 162.22 87.9221 162.232 87.9835C162.244 88.0449 162.269 88.1033 162.304 88.1554C162.338 88.2074 162.383 88.252 162.435 88.2868C162.487 88.3215 162.546 88.3456 162.607 88.3578C162.669 88.3699 162.732 88.3698 162.794 88.3575C162.855 88.3452 162.913 88.3209 162.966 88.2861C163.018 88.2512 163.062 88.2065 163.097 88.1543L165.346 84.7807L166.124 85.2987C166.382 85.4703 166.697 85.5327 167.001 85.4724C167.305 85.4121 167.573 85.2338 167.745 84.9767C167.802 84.8912 167.848 84.7985 167.881 84.7011L169.641 79.5151C169.724 79.2711 169.724 79.0065 169.641 78.7625C169.558 78.5186 169.397 78.3088 169.182 78.166C168.968 78.0231 168.712 77.955 168.455 77.9723C168.197 77.9896 167.953 78.0914 167.76 78.2618L167.76 78.2617Z" fill="#3F3D56"/>
<path d="M309.432 270.47H0.568146C0.417749 270.469 0.273656 270.409 0.167463 270.303C0.0612702 270.197 0.00164795 270.052 0.00164795 269.902C0.00164795 269.752 0.0612702 269.607 0.167463 269.501C0.273656 269.395 0.417749 269.335 0.568146 269.334H309.432C309.582 269.335 309.726 269.395 309.833 269.501C309.939 269.607 309.998 269.752 309.998 269.902C309.998 270.052 309.939 270.197 309.833 270.303C309.726 270.409 309.582 270.469 309.432 270.47Z" fill="#3F3D56"/>
<path d="M115.384 10.2674H102.5C102.247 10.2674 102.005 10.1669 101.826 9.98802C101.647 9.80913 101.546 9.56652 101.546 9.31354C101.546 9.06056 101.647 8.81794 101.826 8.63906C102.005 8.46018 102.247 8.35968 102.5 8.35968H115.384C115.637 8.35968 115.88 8.46018 116.059 8.63906C116.238 8.81794 116.338 9.06056 116.338 9.31354C116.338 9.56652 116.238 9.80913 116.059 9.98802C115.88 10.1669 115.637 10.2674 115.384 10.2674Z" fill="white"/>
<path d="M121.825 10.2674C122.353 10.2674 122.78 9.84034 122.78 9.31354C122.78 8.78674 122.353 8.35968 121.825 8.35968C121.298 8.35968 120.871 8.78674 120.871 9.31354C120.871 9.84034 121.298 10.2674 121.825 10.2674Z" fill="white"/>
</g>
<defs>
<clipPath id="clip0_16_7">
<rect width="310" height="271" fill="white"/>
</clipPath>
</defs>
</svg>
